<svg xmlns="http://www.w3.org/2000/svg" viewBox="0 0 400 400" width="400" height="400">
  <!-- Chess board -->
  <rect width="400" height="400" fill="#2d2d2d"/>
  
  <!-- Light squares -->
  <rect x="0" y="0" width="50" height="50" fill="#e9edcc"/>
  <rect x="100" y="0" width="50" height="50" fill="#e9edcc"/>
  <rect x="200" y="0" width="50" height="50" fill="#e9edcc"/>
  <rect x="300" y="0" width="50" height="50" fill="#e9edcc"/>
  
  <rect x="50" y="50" width="50" height="50" fill="#e9edcc"/>
  <rect x="150" y="50" width="50" height="50" fill="#e9edcc"/>
  <rect x="250" y="50" width="50" height="50" fill="#e9edcc"/>
  <rect x="350" y="50" width="50" height="50" fill="#e9edcc"/>
  
  <rect x="0" y="100" width="50" height="50" fill="#e9edcc"/>
  <rect x="100" y="100" width="50" height="50" fill="#e9edcc"/>
  <rect x="200" y="100" width="50" height="50" fill="#e9edcc"/>
  <rect x="300" y="100" width="50" height="50" fill="#e9edcc"/>
  
  <rect x="50" y="150" width="50" height="50" fill="#e9edcc"/>
  <rect x="150" y="150" width="50" height="50" fill="#e9edcc"/>
  <rect x="250" y="150" width="50" height="50" fill="#e9edcc"/>
  <rect x="350" y="150" width="50" height="50" fill="#e9edcc"/>
  
  <rect x="0" y="200" width="50" height="50" fill="#e9edcc"/>
  <rect x="100" y="200" width="50" height="50" fill="#e9edcc"/>
  <rect x="200" y="200" width="50" height="50" fill="#e9edcc"/>
  <rect x="300" y="200" width="50" height="50" fill="#e9edcc"/>
  
  <rect x="50" y="250" width="50" height="50" fill="#e9edcc"/>
  <rect x="150" y="250" width="50" height="50" fill="#e9edcc"/>
  <rect x="250" y="250" width="50" height="50" fill="#e9edcc"/>
  <rect x="350" y="250" width="50" height="50" fill="#e9edcc"/>
  
  <rect x="0" y="300" width="50" height="50" fill="#e9edcc"/>
  <rect x="100" y="300" width="50" height="50" fill="#e9edcc"/>
  <rect x="200" y="300" width="50" height="50" fill="#e9edcc"/>
  <rect x="300" y="300" width="50" height="50" fill="#e9edcc"/>
  
  <rect x="50" y="350" width="50" height="50" fill="#e9edcc"/>
  <rect x="150" y="350" width="50" height="50" fill="#e9edcc"/>
  <rect x="250" y="350" width="50" height="50" fill="#e9edcc"/>
  <rect x="350" y="350" width="50" height="50" fill="#e9edcc"/>
  
  <!-- Dark squares -->
  <rect x="50" y="0" width="50" height="50" fill="#769656"/>
  <rect x="150" y="0" width="50" height="50" fill="#769656"/>
  <rect x="250" y="0" width="50" height="50" fill="#769656"/>
  <rect x="350" y="0" width="50" height="50" fill="#769656"/>
  
  <rect x="0" y="50" width="50" height="50" fill="#769656"/>
  <rect x="100" y="50" width="50" height="50" fill="#769656"/>
  <rect x="200" y="50" width="50" height="50" fill="#769656"/>
  <rect x="300" y="50" width="50" height="50" fill="#769656"/>
  
  <rect x="50" y="100" width="50" height="50" fill="#769656"/>
  <rect x="150" y="100" width="50" height="50" fill="#769656"/>
  <rect x="250" y="100" width="50" height="50" fill="#769656"/>
  <rect x="350" y="100" width="50" height="50" fill="#769656"/>
  
  <rect x="0" y="150" width="50" height="50" fill="#769656"/>
  <rect x="100" y="150" width="50" height="50" fill="#769656"/>
  <rect x="200" y="150" width="50" height="50" fill="#769656"/>
  <rect x="300" y="150" width="50" height="50" fill="#769656"/>
  
  <rect x="50" y="200" width="50" height="50" fill="#769656"/>
  <rect x="150" y="200" width="50" height="50" fill="#769656"/>
  <rect x="250" y="200" width="50" height="50" fill="#769656"/>
  <rect x="350" y="200" width="50" height="50" fill="#769656"/>
  
  <rect x="0" y="250" width="50" height="50" fill="#769656"/>
  <rect x="100" y="250" width="50" height="50" fill="#769656"/>
  <rect x="200" y="250" width="50" height="50" fill="#769656"/>
  <rect x="300" y="250" width="50" height="50" fill="#769656"/>
  
  <rect x="50" y="300" width="50" height="50" fill="#769656"/>
  <rect x="150" y="300" width="50" height="50" fill="#769656"/>
  <rect x="250" y="300" width="50" height="50" fill="#769656"/>
  <rect x="350" y="300" width="50" height="50" fill="#769656"/>
  
  <rect x="0" y="350" width="50" height="50" fill="#769656"/>
  <rect x="100" y="350" width="50" height="50" fill="#769656"/>
  <rect x="200" y="350" width="50" height="50" fill="#769656"/>
  <rect x="300" y="350" width="50" height="50" fill="#769656"/>
  
  <!-- Chess pieces (simplified) -->
  <!-- Black pieces (top) -->
  <circle cx="25" cy="25" r="15" fill="#333" stroke="#fff" stroke-width="2"/>
  <circle cx="75" cy="25" r="15" fill="#333" stroke="#fff" stroke-width="2"/>
  <circle cx="125" cy="25" r="15" fill="#333" stroke="#fff" stroke-width="2"/>
  <circle cx="175" cy="25" r="15" fill="#333" stroke="#fff" stroke-width="2"/>
  <circle cx="225" cy="25" r="15" fill="#333" stroke="#fff" stroke-width="2"/>
  <circle cx="275" cy="25" r="15" fill="#333" stroke="#fff" stroke-width="2"/>
  <circle cx="325" cy="25" r="15" fill="#333" stroke="#fff" stroke-width="2"/>
  <circle cx="375" cy="25" r="15" fill="#333" stroke="#fff" stroke-width="2"/>
  
  <circle cx="25" cy="75" r="12" fill="#333" stroke="#fff" stroke-width="2"/>
  <circle cx="75" cy="75" r="12" fill="#333" stroke="#fff" stroke-width="2"/>
  <circle cx="125" cy="75" r="12" fill="#333" stroke="#fff" stroke-width="2"/>
  <circle cx="175" cy="75" r="12" fill="#333" stroke="#fff" stroke-width="2"/>
  <circle cx="225" cy="75" r="12" fill="#333" stroke="#fff" stroke-width="2"/>
  <circle cx="275" cy="75" r="12" fill="#333" stroke="#fff" stroke-width="2"/>
  <circle cx="325" cy="75" r="12" fill="#333" stroke="#fff" stroke-width="2"/>
  <circle cx="375" cy="75" r="12" fill="#333" stroke="#fff" stroke-width="2"/>
  
  <!-- White pieces (bottom) -->
  <circle cx="25" cy="325" r="12" fill="#fff" stroke="#333" stroke-width="2"/>
  <circle cx="75" cy="325" r="12" fill="#fff" stroke="#333" stroke-width="2"/>
  <circle cx="125" cy="325" r="12" fill="#fff" stroke="#333" stroke-width="2"/>
  <circle cx="175" cy="325" r="12" fill="#fff" stroke="#333" stroke-width="2"/>
  <circle cx="225" cy="325" r="12" fill="#fff" stroke="#333" stroke-width="2"/>
  <circle cx="275" cy="325" r="12" fill="#fff" stroke="#333" stroke-width="2"/>
  <circle cx="325" cy="325" r="12" fill="#fff" stroke="#333" stroke-width="2"/>
  <circle cx="375" cy="325" r="12" fill="#fff" stroke="#333" stroke-width="2"/>
  
  <circle cx="25" cy="375" r="15" fill="#fff" stroke="#333" stroke-width="2"/>
  <circle cx="75" cy="375" r="15" fill="#fff" stroke="#333" stroke-width="2"/>
  <circle cx="125" cy="375" r="15" fill="#fff" stroke="#333" stroke-width="2"/>
  <circle cx="175" cy="375" r="15" fill="#fff" stroke="#333" stroke-width="2"/>
  <circle cx="225" cy="375" r="15" fill="#fff" stroke="#333" stroke-width="2"/>
  <circle cx="275" cy="375" r="15" fill="#fff" stroke="#333" stroke-width="2"/>
  <circle cx="325" cy="375" r="15" fill="#fff" stroke="#333" stroke-width="2"/>
  <circle cx="375" cy="375" r="15" fill="#fff" stroke="#333" stroke-width="2"/>
</svg>

